# AST/ASF file generated using VICON BodyLanguage
# -----------------------------------------------
:version 1.10
:name VICON
:units
  mass 1.0
  length 0.45
  angle deg
:documentation
   .ast/.asf automatically generated from VICON data using
   VICON BodyBuilder and BodyLanguage model FoxedUp or BRILLIANT.MOD
:root
   order TX TY TZ RX RY RZ
   axis XYZ
   position 0 0 0  
   orientation 0 0 0 
:bonedata
  begin
     id 1 
     name lhipjoint
     direction 0.734343 -0.627749 0.258209 
     length 2.5437 
     axis 0 0 0  XYZ
  end
  begin
     id 2 
     name lfemur
     direction 0.34202 -0.939693 0  
     length 6.7391  
     axis 0 0 20  XYZ
    dof rx ry rz
    limits (-160.0 20.0)
           (-70.0 70.0)
           (-60.0 70.0)
  end
  begin
     id 3 
     name ltibia
     direction 0.34202 -0.939693 0   
     length 7.21536   
     axis 0 0 20   XYZ
    dof rx
    limits (-10.0 170.0)
  end
  begin
     id 4 
     name lfoot
     direction 0.0489572 -0.134509 0.989702   
     length 1.61313   
     axis -90 7.62852e-016 20   XYZ
    dof rx rz
    limits (-45.0 90.0)
           (-70.0 20.0)
  end
  begin
     id 5 
     name ltoes
     direction 1.53451e-011 -4.21692e-011 1   
     length 0.823104   
     axis -90 7.62852e-016 20   XYZ
    dof rx
    limits (-90.0 20.0)
  end
  begin
     id 6 
     name rhipjoint
     direction -0.746398 -0.615468 0.253157   
     length 2.59446  
     axis 0 0 0  XYZ 
  end
  begin
     id 7 
     name rfemur
     direction -0.34202 -0.939693 0   
     length 6.7075   
     axis 0 0 -20   XYZ
    dof rx ry rz
    limits (-160.0 20.0)
           (-70.0 70.0)
           (-70.0 60.0)
  end
  begin
     id 8 
     name rtibia
     direction -0.34202 -0.939693 0   
     length 7.27262   
     axis 0 0 -20   XYZ
    dof rx
    limits (-10.0 170.0)
 end
 begin
     id 9 
     name rfoot
     direction -0.0455203 -0.125066 0.991104   
     length 1.91095  
     axis -90 -7.62852e-016 -20   XYZ
    dof rx rz
    limits (-45.0 90.0)
           (-20.0 70.0)
  end
  begin
     id 10 
     name rtoes
     direction -1.53601e-011 -4.21913e-011 1   
     length 0.969037   
     axis -90 -7.62852e-016 -20   XYZ
    dof rx
    limits (-90.0 20.0)
  end
  begin
     id 11 
     name lowerback
     direction 0.0181546 0.999122 -0.0377542   
     length 1.99916   
     axis 0 0 0   XYZ
    dof rx ry rz
    limits (-20.0 45.0)
           (-30.0 30.0)
           (-30.0 30.0)
  end
  begin
     id 12 
     name upperback
     direction 0.0203486 0.99589 0.0882534   
     length 1.951   
     axis 0 0 0   XYZ
    dof rx ry rz
    limits (-20.0 45.0)
           (-30.0 30.0)
           (-30.0 30.0)
  end
  begin
     id 13 
     name thorax
     direction 0.0131685 0.994241 0.106355   
     length 1.97461   
     axis 0 0 0   XYZ
    dof rx ry rz
    limits (-20.0 45.0)
           (-30.0 30.0)
           (-30.0 30.0)
  end
  begin
     id 14 
     name lowerneck
     direction -0.0281395 0.999325 0.023617   
     length 1.7959   
     axis 0 0 0   XYZ
    dof rx ry rz
    limits (-20.0 45.0)
           (-30.0 30.0)
           (-30.0 30.0)
  end
  begin
     id 15 
     name upperneck
     direction 0.0288721 0.991984 -0.123019   
     length 1.79917   
     axis 0 0 0   XYZ
    dof rx ry rz
    limits (-20.0 45.0)
           (-30.0 30.0)
           (-30.0 30.0)
  end
  begin
     id 16
     name head
     direction 0.0133797 0.998944 -0.0439492  
     length 1.80902  
     axis 0 0 0   XYZ
    dof rx ry rz
    limits (-20.0 45.0)
           (-30.0 30.0)
           (-30.0 30.0)
  end
  begin
     id 17 
     name lclavicle
     direction 0.919195 0.377107 0.113449  
     length 3.17815  
     axis 0 0 0   XYZ
    dof ry rz
    limits (-20.0 10.0)
           (0.0 20.0)
  end
  begin
     id 18 
     name lhumerus
     direction 1 -4.48959e-011 2.13129e-027   
     length 4.84137   
     axis 180 -30 -90   XYZ
    dof rx ry rz
    limits (-60.0 90.0)
           (-90.0 90.0)
           (-90.0 90.0)
  end
  begin
     id 19
     name lradius
     direction 1 -4.48957e-011 -6.30627e-028   
     length 3.2452   
     axis 180 -30 -90   XYZ
    dof rx
    limits (-10.0 170.0)
  end
  begin
     id 20
     name lwrist
     direction 1 -4.4901e-011 9.13299e-027   
     length 1.6226   
     axis -6.84618e-015 90 90   XYZ
    dof ry
    limits (-180.0 0.0)
 end
  begin
     id 21 
     name lhand
     direction 1 -4.48816e-011 1.82293e-026   
     length 0.521221   
     axis -1.16502e-014 90 90   XYZ
    dof rx rz
    limits (-90.0 90.0)
           (-45.0 45.0)
  end
  begin
     id 22 
     name lfingers
     direction 1 -4.49108e-011 3.65687e-026   
     length 0.420221   
     axis -2.33008e-014 90 90   XYZ
    dof rx
    limits (0.0 90.0)
  end
  begin
     id 23
     name lthumb
     direction 0.707107 -6.34943e-011 0.707107   
     length 0.603356   
     axis -90 45 5.69224e-014   XYZ
    dof rx rz
    limits (-45.0 45.0)
           (-45.0 45.0)
  end
  begin
     id 24 
     name rclavicle
     direction -0.90847 0.38596 0.160368   
     length 3.12973  
     axis 0 0 0   XYZ 
    dof ry rz
    limits (-10.0 20.0)
           (-20.0 0.0)
  end
  begin
     id 25 
     name rhumerus
     direction -1 -4.48974e-011 4.47268e-028  
     length 4.72284   
     axis 180 30 90   XYZ
    dof rx ry rz
    limits (-90.0 60.0)
           (-90.0 90.0)
           (-90.0 90.0)
  end
  begin
     id 26 
     name rradius
     direction -1 -4.48969e-011 3.43203e-027   
     length 3.23459   
     axis 180 30 90   XYZ
    dof rx
    limits (-10.0 170.0)
  end
  begin
     id 27 
     name rwrist
     direction -1 -4.48969e-011 9.12911e-027   
     length 1.6173   
     axis -6.84618e-015 -90 -90   XYZ
    dof ry
    limits (-180.0 0.0)
  end
  begin
     id 28
     name rhand
     direction -1 -4.49194e-011 1.83006e-026   
     length 0.307416   
     axis -1.16502e-014 -90 -90   XYZ
    dof rx rz
    limits (-90.0 90.0)
           (-45.0 45.0)
  end
  begin
     id 29
     name rfingers
     direction -1 -4.48423e-011 3.63103e-026   
     length 0.247847   
     axis -2.33008e-014 -90 -90   XYZ
    dof rx
    limits (0.0 90.0)
  end
  begin
     id 30
     name rthumb
     direction -0.707107 -6.34802e-011 0.707107   
     length 0.35586   
     axis -90 -45 -5.69224e-014   XYZ
    dof rx rz
    limits (-45.0 45.0)
           (-45.0 45.0)
  end
:hierarchy
  begin
    root lhipjoint rhipjoint lowerback
    lhipjoint lfemur
    lfemur ltibia
    ltibia lfoot
    lfoot ltoes
    rhipjoint rfemur
    rfemur rtibia
    rtibia rfoot
    rfoot rtoes
    lowerback upperback
    upperback thorax
    thorax lowerneck lclavicle rclavicle
    lowerneck upperneck
    upperneck head
    lclavicle lhumerus
    lhumerus lradius
    lradius lwrist
    lwrist lhand lthumb
    lhand lfingers
    rclavicle rhumerus
    rhumerus rradius
    rradius rwrist
    rwrist rhand rthumb
    rhand rfingers
  end

#!OML:ASF \\Waltz\H\Terrain\Patient Classification 1\Animal1\Tuesday\Animal1.ASF
:FULLY-SPECIFIED
:DEGREES
284
root 19.4543 12.6299 -22.6827 33.6004 -34.0584 2.31784
lowerback 44.5538 0.898173 4.18559
upperback 16.227 1.81803 0.133865
thorax -2.40321 0.781076 -2.6431
lowerneck -16.5472 1.98555 1.03235
upperneck -13.0566 2.67126 4.33515
head -1.49404 1.19618 1.30128
rclavicle 2.70347e-014 6.06293e-015
rhumerus -69.3927 43.3077 -68.8874
rradius 32.3174
rwrist -21.791
rhand -23.2612 24.0857
rfingers 7.12502
rthumb 3.19081 -5.87013
lclavicle 2.70347e-014 6.06293e-015
lhumerus -46.3035 -40.1067 28.0707
lradius 27.6964
lwrist -22.9686
lhand 9.38721 45.6444
lfingers 7.12502
lthumb 34.5449 432.306
rfemur -85.187 11.1851 23.4134
rtibia 89.6565
rfoot -32.9011 -37.1755
rtoes 30.2038
lfemur -98.745 -1.06096 -5.44707
ltibia 54.1001
lfoot -9.52359 1.20286
ltoes -35.5345
285
root 19.4613 12.605 -22.6723 33.9167 -33.9913 2.13836
lowerback 44.2291 0.855108 4.34426
upperback 16.1957 1.82191 0.126775
thorax -2.34861 0.792772 -2.73115
lowerneck -16.4225 2.01061 1.07273
upperneck -13.1195 2.70045 4.24357
head -1.53238 1.20729 1.26425
rclavicle 2.8625e-014 -1.3418e-015
rhumerus -60.5773 40.4929 -57.8694
rradius 28.1144
rwrist -15.8051
rhand -30.7367 26.2034
rfingers 7.12502
rthumb -4.02888 -3.73824
lclavicle 2.8625e-014 -1.3418e-015
lhumerus -40.2453 -34.7406 20.1743
lradius 25.7421
lwrist -26.6073
lhand 5.17644 48.5811
lfingers 7.12502
lthumb 30.5382 436.07
rfemur -85.5399 11.2962 23.4694
rtibia 89.8187
rfoot -33.0824 -37.1046
rtoes 30.4889
lfemur -99.2655 -0.870894 -5.60998
ltibia 54.4731
lfoot -9.61643 1.03022
ltoes -35.7688
286
root 19.4659 12.6058 -22.6604 34.0165 -33.9141 1.68081
lowerback 44.3377 0.793594 4.67169
upperback 16.2396 1.86681 0.13175
thorax -2.30884 0.825549 -2.9072
lowerneck -16.5778 2.05404 1.15261
upperneck -13.0192 2.73121 4.14054
head -1.47372 1.22404 1.22015
rclavicle -1.59028e-014 6.9028e-014
rhumerus -51.7787 35.3711 -46.6404
rradius 23.9685
rwrist -9.13223
rhand -40.1852 24.8259
rfingers 7.12502
rthumb -13.1463 -4.73967
lclavicle -1.59028e-014 6.9028e-014
lhumerus -35.3986 -28.1247 13.5938
lradius 24.2538
lwrist -30.0184
lhand 0.131414 52.4689
lfingers 7.12502
lthumb 25.7162 440.752
rfemur -85.2268 11.5035 23.8412
rtibia 89.7531
rfoot -33.0113 -37.3107
rtoes 30.2661
lfemur -99.2382 -0.688528 -5.4451
ltibia 54.7615
lfoot -9.63643 0.984059
ltoes -35.7985
287
root 19.4724 12.6276 -22.6316 33.7828 -34.0153 1.35198
lowerback 44.7367 0.692224 5.03358
upperback 16.2084 1.87804 -0.0612466
thorax -2.42101 0.851533 -3.30081
lowerneck -16.2936 2.12994 1.60707
upperneck -13.0256 2.76734 4.05022
head -1.51274 1.21899 1.11223
rclavicle -7.63333e-014 -1.39646e-014
rhumerus -44.1468 27.6392 -35.9907
rradius 20.1603
rwrist -2.42079
rhand -46.9045 29.3077
rfingers 7.12502
rthumb -19.6155 0.277256
lclavicle -7.63333e-014 -1.39646e-014
lhumerus -31.7647 -22.0832 8.30164
lradius 23.4275
lwrist -32.1049
lhand -5.17175 56.8967
lfingers 7.12502
lthumb 20.6284 445.82
rfemur -84.472 11.4864 24.1042
rtibia 89.5627
rfoot -33.1274 -37.1812
rtoes 30.1356
lfemur -98.7359 -0.776992 -5.07212
ltibia 54.9633
lfoot -9.62588 1.37104
ltoes -35.2513
288
root 19.4735 12.6336 -22.6282 33.744 -34.0224 1.40545
lowerback 44.7848 0.728623 4.93926
upperback 16.095 1.89831 -0.0478354
thorax -2.56364 0.851824 -3.24858
lowerneck -15.8876 2.12505 1.78724
upperneck -13.0981 2.75153 4.04901
head -1.59571 1.19675 1.07643
rclavicle 3.97569e-014 -7.83212e-014
rhumerus -38.0146 17.9175 -26.1434
rradius 17.0467
rwrist 3.80063
rhand -49.8138 41.9593
rfingers 7.12502
rthumb -22.4104 13.2394
lclavicle 3.97569e-014 -7.83212e-014
lhumerus -28.8322 -15.7507 4.26261
lradius 22.774
lwrist -33.7351
lhand -10.3025 60.7039
lfingers 7.12502
lthumb 15.6923 269.912
rfemur -84.4107 11.4128 24.1057
rtibia 89.4994
rfoot -33.1545 -37.0834
rtoes 30.017
lfemur -98.7113 -0.772325 -5.18475
ltibia 55.0335
lfoot -9.56581 1.41907
ltoes -34.2649
289
root 19.4822 12.6476 -22.6109 33.3694 -34.2681 1.59312
lowerback 45.0019 0.805503 4.66224
upperback 16.1343 1.88858 0.0556816
thorax -2.58985 0.825191 -2.99545
lowerneck -15.9269 2.05639 1.26849
upperneck -12.9537 2.73601 4.12342
head -1.54894 1.21793 1.18747
rclavicle -1.59028e-015 3.24516e-014
rhumerus -33.7157 6.90757 -17.3822
rradius 15.2015
rwrist 9.97948
rhand -51.8125 53.9446
rfingers 7.12502
rthumb -24.3278 25.4685
lclavicle -1.59028e-015 3.24516e-014
lhumerus -26.3575 -7.19715 1.11994
lradius 21.9677
lwrist -37.0313
lhand -14.478 63.4908
lfingers 7.12502
lthumb 11.6682 266.854
rfemur -84.0508 11.3191 23.8662
rtibia 89.4145
rfoot -32.8977 -37.1524
rtoes 29.5804
lfemur -98.2942 -0.920393 -5.25953
ltibia 55.0608
lfoot -9.50111 1.72519
ltoes -33.0724
290
root 19.492 12.6751 -22.5937 33.0177 -34.5425 1.81066
lowerback 45.2636 0.872831 4.39046
upperback 16.0992 1.87305 0.115278
thorax -2.70868 0.796499 -2.79098
lowerneck -15.8736 2.01604 0.801647
upperneck -12.8574 2.74853 4.0606
head -1.52992 1.24995 1.24582
rclavicle -1.74931e-014 1.51573e-014
rhumerus -31.0518 -6.59 -9.09562
rradius 13.7911
rwrist 18.7583
rhand -52.5431 64.0525
rfingers 7.12502
rthumb -25.028 35.6722
lclavicle -1.74931e-014 1.51573e-014
lhumerus -24.9455 0.594663 -1.18082
lradius 21.8384
lwrist -39.422
lhand -18.2989 65.4223
lfingers 7.12502
lthumb 7.98184 264.748
rfemur -83.6646 11.1478 23.614
rtibia 89.2656
rfoot -32.6914 -37.0767
rtoes 29.311
lfemur -97.8536 -1.01277 -5.52184
ltibia 55.0292
lfoot -9.5402 1.75788
ltoes -32.1862
291
root 19.4968 12.6919 -22.5711 32.6553 -34.8367 2.04561
lowerback 45.6702 0.973668 4.0645
upperback 15.9512 1.88465 0.151702
thorax -2.98845 0.775734 -2.59663
lowerneck -15.5756 1.99418 0.490929
upperneck -12.969 2.77614 4.01379
head -1.61597 1.27447 1.28093
rclavicle 3.18055e-014 -2.48481e-016
rhumerus -29.9084 -18.484 -2.46631
rradius 12.8652
rwrist 26.8109
rhand -52.8891 70.5838
rfingers 7.12502
rthumb -25.3595 42.25
lclavicle 3.18055e-014 -2.48481e-016
lhumerus -23.5041 -5.90065 -1.57488
lradius 22.8066
lwrist -27.9087
lhand -21.9295 67.4459
lfingers 7.12502
lthumb 4.47681 262.621
rfemur -83.3121 10.9742 23.3671
rtibia 89.1921
rfoot -32.6065 -36.7651
rtoes 29.2192
lfemur -97.4906 -1.04406 -5.96678
ltibia 55.0899
lfoot -9.58713 1.75416
ltoes -32.2764
292
root 19.4991 12.7045 -22.5511 32.4717 -35.0263 2.0078
lowerback 46.1316 1.07711 3.8781
upperback 15.7901 1.95683 0.253997
thorax -3.28638 0.783483 -2.42619
lowerneck -15.5539 1.96719 0.286461
upperneck -12.9182 2.76157 3.91912
head -1.60306 1.27844 1.28425
rclavicle -4.29375e-014 2.93207e-014
rhumerus -28.8095 -22.7734 0.260918
rradius 12.7525
rwrist 27.7358
rhand -53.5379 72.6998
rfingers 7.12502
rthumb -25.9809 44.4558
lclavicle -4.29375e-014 2.93207e-014
lhumerus -22.1037 -3.01576 -2.46568
lradius 22.7786
lwrist -26.5917
lhand -25.5906 67.9084
lfingers 7.12502
lthumb 0.94115 262.114
rfemur -82.9449 10.9302 23.3808
rtibia 89.0937
rfoot -32.6039 -36.5249
rtoes 28.9682
lfemur -97.2061 -0.965558 -6.20365
ltibia 55.1964
lfoot -9.58115 1.72527
ltoes -33.1676
293
root 19.5016 12.71 -22.5273 32.5051 -35.1334 1.77269
lowerback 46.4408 1.13237 3.86821
upperback 15.6868 2.03639 0.388999
thorax -3.47517 0.802187 -2.3111
lowerneck -15.691 1.92894 0.0650953
upperneck -12.8197 2.72485 3.76241
head -1.54884 1.27425 1.27146
rclavicle -1.27222e-014 6.35117e-014
rhumerus -27.0916 -20.6473 -0.0920115
rradius 13.1176
rwrist 22.5546
rhand -54.0449 71.0541
rfingers 7.12502
rthumb -26.4663 42.8822
lclavicle -1.27222e-014 6.35117e-014
lhumerus -21.0057 0.0765111 -3.02179
lradius 22.7479
lwrist -26.7837
lhand -28.4735 68.0125
lfingers 7.12502
lthumb -1.8432 262.016
rfemur -82.6836 10.9941 23.5328
rtibia 89.0002
rfoot -32.708 -36.4728
rtoes 28.4375
lfemur -97.0997 -0.853046 -6.13986
ltibia 55.3837
lfoot -9.61651 1.55174
ltoes -33.415
294
root 19.5065 12.7184 -22.4996 32.4408 -35.2521 1.77063
lowerback 46.6757 1.10326 3.85858
upperback 15.5984 2.01678 0.481126
thorax -3.63327 0.780416 -2.20284
lowerneck -15.5558 1.83677 -0.354143
upperneck -12.9972 2.67164 3.81406
head -1.63335 1.26125 1.35688
rclavicle -6.36111e-014 -1.09829e-014
rhumerus -25.4157 -15.6497 -1.44312
rradius 13.8196
rwrist 15.3046
rhand -53.6681 66.8456
rfingers 7.12502
rthumb -26.1056 38.6199
lclavicle -6.36111e-014 -1.09829e-014
lhumerus -20.201 3.83946 -3.22975
lradius 22.5745
lwrist -29.2914
lhand -30.0062 67.7733
lfingers 7.12502
lthumb -3.32349 262.273
rfemur -82.4909 10.9239 23.4744
rtibia 88.9159
rfoot -32.5929 -36.6236
rtoes 27.5325
lfemur -96.9936 -0.915549 -6.12794
ltibia 55.5721
lfoot -9.72916 1.49477
ltoes -32.6825
